<svg xmlns="http://www.w3.org/2000/svg" width="250" height="80"><path fill="#111b51" d="M52.83 41.32h7.12c4.157 0 6.672 2.464 6.672 6.076 0 4.034-3.138 6.126-7.047 6.126h-2.912v5.23H52.83zm6.872 8.787c1.917 0 3.04-1.144 3.04-2.69 0-1.716-1.196-2.638-3.113-2.638h-2.962v5.328zm10.752-8.787h13.143v3.411H74.26v3.536h8.217v3.411H74.26v3.66h9.46v3.41H70.45V41.32zm17.676 0h4.132l4.58 7.37 4.58-7.37h4.133v17.432h-3.808V47.374l-4.905 7.446h-.098l-4.854-7.37v11.306h-3.76zm21.22 8.713c0-4.957 3.735-9.013 9.088-9.013 3.286 0 5.13 1.246 6.748 2.84l-2.292 2.638c-1.345-1.221-2.489-1.943-4.482-1.943-2.937 0-5.054 2.442-5.054 5.478 0 2.989 2.066 5.478 5.054 5.478 1.993 0 3.21-.798 4.58-2.04l2.442 2.612c-1.793 1.917-3.783 2.963-7.146 2.963-5.13 0-8.938-3.958-8.938-9.013zm23.892-5.178h-5.302V41.32h14.44v3.535h-5.301V58.75h-3.834V44.855zm16.494-3.655h3.535l7.47 17.556h-4.009l-1.592-3.91h-7.368l-1.592 3.91h-3.91zm4.034 10.256l-2.314-5.653-2.314 5.653zm10.35-10.136h3.833v6.9h7.07v-6.9h3.833v17.432h-3.834v-7.001h-7.069v6.998h-3.833zm19.3 0h4.132l4.58 7.37 4.58-7.37h4.133v17.432h-3.808V47.374l-4.905 7.446h-.098l-4.854-7.37v11.306h-3.76zm27.966-.12h3.535l7.47 17.556h-4.009l-1.592-3.91h-7.368l-1.592 3.91h-3.91zm4.034 10.256l-2.314-5.653-2.314 5.653zm34.575 7.296H226.07V41.32h3.833v13.97h6.198V41.32h3.834v13.97h6.223V41.32h3.834v17.432z"/><path fill="#686c90" d="M54.36 66.982H52.8v-.802h3.994v.802h-1.56V71.1h-.87v-4.118zm5.454-.802h3.647v.773h-2.784v1.279h2.467v.773h-2.467v1.323h2.817v.772H59.81v-4.92zm8.229 2.416l-1.724-2.416h1.02l1.225 1.764 1.231-1.764h.992l-1.717 2.405 1.786 2.515h-1.02l-1.294-1.862-1.3 1.862h-.992zm5.817-2.416h.864v2.045h2.346V66.18h.864v4.92h-.864v-2.074h-2.346V71.1h-.864zm7.23 2.464c0-1.385 1.068-2.544 2.58-2.544s2.565 1.144 2.565 2.544c0 1.385-1.068 2.544-2.58 2.544s-2.565-1.148-2.565-2.544zm4.238 0c0-.955-.696-1.75-1.673-1.75-.976 0-1.658.78-1.658 1.75 0 .955.696 1.75 1.673 1.75.976 0 1.658-.78 1.658-1.75zm3.182 2.434l.084-.71a.943.943 0 00.28.043c.5 0 .962-.317.962-3.262v-.969h3.375v4.92h-.864v-4.14h-1.702v.445c0 3.127-.568 3.754-1.537 3.754a3.344 3.344 0 01-.598-.08zm7.87-2.434c0-1.385 1.068-2.544 2.58-2.544s2.565 1.144 2.565 2.544c0 1.385-1.068 2.544-2.58 2.544s-2.565-1.148-2.565-2.544zm4.238 0c0-.955-.696-1.75-1.673-1.75-.976 0-1.658.78-1.658 1.75 0 .955.696 1.75 1.673 1.75.976 0 1.658-.78 1.658-1.75zm4.062-2.464h3.309v.78h-2.453v4.14h-.856zm6.28 0h.849v3.594l2.489-3.594h.809v4.92h-.85v-3.586l-2.48 3.586h-.817zm7.53 0h.849v3.594l2.489-3.594h.809v4.92h-.85v-3.586l-2.48 3.586h-.817zm15.4 4.148h.477c.408-.81.627-1.808.627-3.452v-.696h3.429v4.148h.612l-.12 1.826h-.718V71.1h-3.465l-.084 1.054h-.758zm3.67 0V66.96h-1.735v.561c0 1.141-.197 2.125-.536 2.807zm3.76.75l.084-.71a.943.943 0 00.28.043c.5 0 .962-.317.962-3.262v-.969h3.374v4.92h-.863v-4.14h-1.702v.445c0 3.127-.568 3.754-1.537 3.754a3.298 3.298 0 01-.598-.08zm9.045-1.826c-.69-.19-1.174-.688-1.174-1.505 0-.955.696-1.567 1.833-1.567h2.186v4.92h-.856v-1.702h-1.09L150.04 71.1h-1.02zm1.99-2.292h-1.258c-.645 0-1.031.31-1.031.842 0 .514.4.842 1.02.842h1.268zm12.665-.78h4.012v4.92h-.864v-4.14h-2.284v4.14h-.864zm7.39 0h1.938c1.145 0 1.87.652 1.87 1.658 0 1.105-.886 1.68-1.968 1.68h-.976V71.1h-.864zm1.87 2.562c.651 0 1.06-.364 1.06-.893 0-.576-.416-.878-1.06-.878h-1.006v1.771zm4.71-.098c0-1.385 1.068-2.544 2.58-2.544s2.565 1.144 2.565 2.544c0 1.385-1.068 2.544-2.58 2.544s-2.565-1.148-2.565-2.544zm4.238 0c0-.955-.696-1.75-1.673-1.75-.976 0-1.658.78-1.658 1.75 0 .955.696 1.75 1.673 1.75.976 0 1.658-.78 1.658-1.75zm4.062-2.464h.849v3.594l2.489-3.594h.809v4.92h-.85v-3.586l-2.48 3.586h-.817zm10.931 1.23c0 .634-.4.962-.838 1.145.547.167.962.543.962 1.18 0 .817-.71 1.44-1.807 1.44-.955 0-1.581-.28-2.128-.809l.47-.598c.441.423.97.653 1.636.653.521 0 .962-.274.962-.74 0-.507-.485-.718-1.126-.718h-.554v-.718h.547c.627 0 1.013-.252 1.013-.718 0-.416-.38-.689-.93-.689-.582 0-1.005.19-1.377.547l-.462-.561c.47-.449 1.027-.744 1.898-.744 1.024.007 1.734.565 1.734 1.33zm3.249-1.23h2.208c.561 0 1.006.153 1.286.437.219.219.332.485.332.831 0 .59-.339.908-.703 1.097.575.197.976.529.976 1.21 0 .879-.725 1.349-1.822 1.349h-2.277zm2.033 2.074c.554 0 .93-.219.93-.682 0-.386-.31-.627-.864-.627h-1.243v1.309zm.252 2.08c.59 0 .947-.232.947-.688 0-.415-.332-.66-1.013-.66h-1.37v1.349zm4.685-1.69c0-1.385 1.068-2.544 2.58-2.544s2.565 1.144 2.565 2.544c0 1.385-1.068 2.544-2.58 2.544s-2.565-1.148-2.565-2.544zm4.238 0c0-.955-.696-1.75-1.673-1.75-.976 0-1.658.78-1.658 1.75 0 .955.696 1.75 1.673 1.75.976 0 1.658-.78 1.658-1.75zm3.352 1.684h.477c.408-.81.627-1.808.627-3.452v-.696h3.429v4.148h.612l-.12 1.826h-.718V71.1h-3.465l-.084 1.054h-.758zm3.67 0V66.96h-1.735v.561c0 1.141-.197 2.125-.536 2.807zm4.14-1.684c0-1.4 1.046-2.544 2.536-2.544.907 0 1.454.317 1.928.765l-.554.638c-.394-.364-.816-.612-1.378-.612-.94 0-1.625.773-1.625 1.75 0 .962.682 1.749 1.625 1.749.605 0 .992-.244 1.414-.638l.554.561c-.514.536-1.075.871-1.997.871-1.435.004-2.503-1.115-2.503-2.54zm8.72-1.662H231v-.802h3.994v.802h-1.56V71.1h-.87v-4.118zm5.46-.802h2.208c.561 0 1.006.153 1.286.437.219.219.332.485.332.831 0 .59-.339.908-.703 1.097.575.197.976.529.976 1.21 0 .879-.725 1.349-1.822 1.349h-2.277zm2.03 2.074c.553 0 .929-.219.929-.682 0-.386-.31-.627-.864-.627h-1.242v1.309zm.255 2.08c.59 0 .947-.232.947-.688 0-.415-.332-.66-1.013-.66h-1.37v1.349zm6.499-4.194h.802l2.164 4.957h-.914l-.5-1.188h-2.324l-.507 1.188h-.885zm1.236 3l-.85-1.969-.841 1.969z"/><g fill="#334da6"><path d="M22.205 16.12a3.095 3.095 0 01-2.135-2.941 3.098 3.098 0 013.094-3.094 3.098 3.098 0 013.093 3.094c0 1.37-.896 2.537-2.135 2.941v17.243a2.992 2.992 0 002.988 2.989 2.992 2.992 0 002.988-2.989V6.036a3.104 3.104 0 01-2.136-2.942A3.098 3.098 0 0131.056 0a3.098 3.098 0 013.094 3.094c0 1.37-.897 2.537-2.136 2.942v27.327c0 2.704-2.2 4.906-4.904 4.906a4.912 4.912 0 01-4.905-4.906zm8.851-11.845a1.182 1.182 0 000-2.362 1.18 1.18 0 100 2.362zm-9.073 8.908c0 .652.532 1.18 1.18 1.18.653 0 1.181-.532 1.181-1.18 0-.653-.532-1.181-1.18-1.181-.649 0-1.181.528-1.181 1.18z"/><path d="M53.877 17.526a3.1 3.1 0 01-2.135 2.942v9.716l-12.338 4.622v5.696a2.513 2.513 0 01-2.51 2.511h-.566v4.793H39.4v11.342l-3.261 3.415h-3.61v14.692l-5.427 2.737-5.425-2.737V62.563h-3.611l-3.261-3.415V47.806h3.075v-4.793h-.565a2.513 2.513 0 01-2.51-2.51v-6.04l-12.67-4.286V20.46A3.104 3.104 0 010 17.52a3.098 3.098 0 013.094-3.094 3.098 3.098 0 013.093 3.094c0 1.37-.896 2.537-2.135 2.941v8.397L14.775 32.4v-4.61l-6.238-2.165v-10.41a3.099 3.099 0 01-2.135-2.94A3.098 3.098 0 019.496 9.18a3.098 3.098 0 013.093 3.094 3.1 3.1 0 01-2.135 2.942v9.045l4.321 1.502V22.22a3.1 3.1 0 01-2.135-2.94 3.098 3.098 0 013.094-3.095 3.098 3.098 0 013.093 3.094c0 1.37-.896 2.537-2.135 2.941v18.282c0 .346.28.627.627.627h19.57c.347 0 .627-.28.627-.627l.004-18.278a3.104 3.104 0 01-2.135-2.941 3.098 3.098 0 013.093-3.094 3.098 3.098 0 013.094 3.094c0 1.37-.896 2.537-2.135 2.941v3.543l4.321-1.502V15.22a3.104 3.104 0 01-2.135-2.941 3.098 3.098 0 013.093-3.094 3.098 3.098 0 013.094 3.094c0 1.37-.896 2.537-2.135 2.941v10.413l-6.238 2.165v4.942l10.388-3.878v-8.397a3.104 3.104 0 01-2.135-2.941 3.098 3.098 0 013.093-3.095 3.094 3.094 0 013.094 3.098zM44.72 13.46a1.182 1.182 0 000-2.361c-.652 0-1.18.531-1.18 1.18 0 .649.528 1.177 1.18 1.18zm-34.044-1.19c0-.653-.532-1.181-1.18-1.181-.653 0-1.18.532-1.18 1.18a1.18 1.18 0 002.361 0zm-6.402 5.248a1.18 1.18 0 10-2.36 0 1.18 1.18 0 002.36 0zm11.463 2.941c.653 0 1.181-.532 1.181-1.18 0-.653-.532-1.182-1.18-1.182-.653 0-1.181.533-1.181 1.181 0 .65.528 1.177 1.18 1.181zm4.03 28.48h14.678v-7.057H19.767zm-3.075 9.078h1.235V54.03c0-.754-.528-1.389-1.235-1.553zm13.952 3.412h-7.076v6.123l4.81-2.428a.377.377 0 11.339.675l-5.149 2.598v2.927l4.81-2.428a.377.377 0 11.339.675l-5.149 2.598v3.117l4.81-2.428a.377.377 0 11.339.675l-5.113 2.58 3.502 1.768 3.538-1.786zm6.512-2.657H17.053l1.822 1.906h16.462zm-12.04-.755V54.03c0-.878-.714-1.593-1.592-1.593-.878 0-1.592.715-1.592 1.593v3.987zm7.193 0V54.03c0-.878-.714-1.593-1.592-1.593-.878 0-1.592.715-1.592 1.593v3.987zm5.211-5.529a1.592 1.592 0 00-1.199 1.542v3.987h1.199zm-20.817-2.795v2.019a2.35 2.35 0 011.99 2.318v3.987h2.496V54.03a2.35 2.35 0 012.346-2.347 2.35 2.35 0 012.347 2.347v3.987h2.496V54.03a2.35 2.35 0 012.346-2.347 2.35 2.35 0 012.347 2.347v3.987h2.496V54.03a2.35 2.35 0 011.953-2.314v-2.023zm21.779-29.23a1.18 1.18 0 100-2.362 1.18 1.18 0 000 2.362zm13.482-2.941c0-.653-.532-1.181-1.18-1.181-.653 0-1.181.532-1.181 1.18a1.18 1.18 0 002.361 0z"/></g></svg>